<svg width="146" height="150" viewBox="0 0 146 150" fill="none" xmlns="http://www.w3.org/2000/svg">
<path d="M79.4118 70.5883C80.325 70.5883 81.2224 70.658 82.0985 70.7912C78.6556 73.253 75.5479 76.1541 72.8577 79.4118H17.6471C12.774 79.4118 8.82353 83.3621 8.82353 88.2353V101.471C8.82353 113.886 22.7525 123.529 48.5294 123.529C53.9757 123.529 58.8931 123.099 63.262 122.303C64.0001 125.202 64.9995 127.999 66.2335 130.663C60.9147 131.765 54.9911 132.353 48.5294 132.353C18.424 132.353 0 119.598 0 101.471V88.2353C0 78.4888 7.90085 70.5883 17.6471 70.5883H79.4118Z" fill="#334E58"/>
<path d="M132.353 39.7059C132.353 51.8886 122.477 61.7647 110.294 61.7647C98.1115 61.7647 88.2354 51.8886 88.2354 39.7059C88.2354 27.5231 98.1115 17.647 110.294 17.647C122.477 17.647 132.353 27.5231 132.353 39.7059ZM110.294 26.4706C102.985 26.4706 97.0589 32.3962 97.0589 39.7059C97.0589 47.0155 102.985 52.9412 110.294 52.9412C117.604 52.9412 123.529 47.0155 123.529 39.7059C123.529 32.3962 117.604 26.4706 110.294 26.4706Z" fill="#334E58"/>
<path d="M48.5298 0C65.5857 0 79.4122 13.8265 79.4122 30.8824C79.4122 47.9382 65.5857 61.7647 48.5298 61.7647C31.4739 61.7647 17.6475 47.9382 17.6475 30.8824C17.6475 13.8265 31.4739 0 48.5298 0ZM48.5298 8.82353C36.3471 8.82353 26.471 18.6996 26.471 30.8824C26.471 43.0651 36.3471 52.9412 48.5298 52.9412C60.7125 52.9412 70.5886 43.0651 70.5886 30.8824C70.5886 18.6996 60.7125 8.82353 48.5298 8.82353Z" fill="#334E58"/>
<path d="M75.0342 94.5865L78.1921 97.6703C85.2792 104.594 85.2792 115.994 78.1921 122.918L75.0342 126.002C76.1777 128.745 77.6107 131.329 79.2942 133.711L82.7848 132.664C92.5065 129.747 102.678 135.613 105.024 145.488L106.039 149.759C107.434 149.918 108.852 150 110.288 150C111.724 150 113.142 149.918 114.537 149.759L115.552 145.488C117.898 135.613 128.07 129.747 137.792 132.664L141.281 133.711C142.966 131.329 144.399 128.745 145.542 126.002L142.384 122.918C135.297 115.994 135.297 104.594 142.384 97.6703L145.542 94.5865C144.399 91.8433 142.966 89.2597 141.281 86.8774L137.792 87.9247C128.07 90.8409 117.898 84.975 115.552 75.1006L114.537 70.8291C113.142 70.6703 111.724 70.5883 110.288 70.5883C108.852 70.5883 107.434 70.6703 106.039 70.8291L105.024 75.1006C102.678 84.975 92.5065 90.8409 82.7848 87.9247L79.2942 86.8774C77.6107 89.2597 76.1777 91.8433 75.0342 94.5865ZM110.288 119.118C105.415 119.118 101.464 115.167 101.464 110.294C101.464 105.421 105.415 101.471 110.288 101.471C115.161 101.471 119.111 105.421 119.111 110.294C119.111 115.167 115.161 119.118 110.288 119.118Z" fill="#334E58"/>
</svg>
