<svg width="147" height="220" viewBox="0 0 147 220" fill="none" xmlns="http://www.w3.org/2000/svg">
<path d="M79.1568 180.891L65.969 181.101L65.8122 187.587L65.4011 215.158C65.3679 217.335 63.7045 218.882 61.5541 218.924L50.4645 219.148C48.3426 219.191 46.6603 217.943 46.2207 215.793L39.1801 181.495C33.4084 181.664 27.8624 181.797 22.2713 181.576C20.2563 181.495 19.2464 178.893 19.6622 177.301L20.3442 173.589L5.87093 169.281C3.90109 168.695 3.02903 166.613 3.55179 164.681L23.9655 89.2663C24.5571 87.0802 26.9452 86.1369 28.8247 86.8402L33.223 88.4822C34.4468 88.9384 35.9841 88.7887 37.4289 88.7744L45.9688 46.3337C46.4464 44.9198 47.385 43.7389 48.8749 43.5393L63.7236 41.5457L65.3489 27.4336C65.5817 25.4091 66.651 23.9145 68.7801 23.4654L78.4843 21.5193C80.4589 21.1914 82.5571 22.0017 83.1868 24.0428L87.6183 38.3972L104.893 36.1636C106.946 35.8975 108.602 37.2448 109.211 39.1386L117.815 84.1575L123.974 82.2923C125.076 81.9572 126.74 82.4182 127.479 83.2926C128.961 85.0439 130.342 86.8189 131.461 88.898L146.92 161.217C147.194 162.49 146.733 163.7 145.975 164.448C143.758 166.642 142.394 164.339 140.559 166.551C139.245 168.139 137.827 169.476 136.137 170.672C135.657 171.011 135.051 171.632 134.89 172.109L135.676 175.997C135.76 177.983 134.512 179.939 132.352 179.986L117.9 180.297L115.488 212.963C115.346 214.904 113.778 216.389 111.915 216.551L98.2683 217.724C96.144 217.907 94.4926 216.166 94.2574 214.146L90.3581 180.725L79.1592 180.884L79.1568 180.891ZM81.3761 39.4071L77.983 28.7001C77.7073 27.828 72.4394 29.2823 71.515 29.5056L70.2533 40.6617C71.7241 40.859 72.9479 40.5382 74.3641 40.3101C77.4555 39.8158 79.1615 40.2008 81.3738 39.4071H81.3761ZM52.4011 174.723L112.537 173.746L128.37 173.487C127.935 171.779 127.467 170.491 127.243 168.785L103.227 43.0142L52.009 49.7744L26.8264 175.065L38.8997 174.937L52.4011 174.723ZM139.671 158.855L125.274 91.4952C125.093 90.6516 124.245 90.0005 123.777 89.2259L119.069 90.7419L133.181 164.581C136.313 162.065 136.08 160.751 139.673 158.855H139.671ZM36.0768 95.5323L32.6242 95.145C31.6476 95.0357 30.5736 94.5842 29.4568 94.2206L10.6257 163.842L21.6915 167.084L36.0768 95.5299V95.5323ZM100.557 210.938L109.059 210.175L111.259 180.354L99.2307 180.606L97.009 180.68L100.557 210.938ZM58.85 212.333L59.1352 196.061L59.3395 181.198L45.9118 181.445L52.2728 212.442L58.8453 212.333H58.85Z" fill="black"/>
<path d="M27.3874 51.737C24.9661 51.7251 19.7409 53.5619 19.0351 49.3941C18.6383 47.0417 18.9567 46.7281 16.5045 45.7419L14.3303 47.4813C11.7569 49.5414 9.75857 46.9728 8.1998 45.2691C7.23983 44.2188 6.08501 43.3016 5.66918 41.864C5.06326 39.7706 8.22357 39.5449 5.82838 36.5295C4.47397 36.4582 2.99599 36.5794 2.24987 35.282C0.448735 32.155 -0.601533 30.399 0.370321 27.1104C1.03565 24.8578 4.21496 25.6586 6.07313 25.8035L7.02122 22.9996C5.54562 21.2484 2.49224 18.8247 4.95871 16.4628L8.36613 13.1979C9.45917 12.15 11.1463 12.2973 12.206 13.2312L13.6864 14.5357L17.8304 12.8106L18.1274 9.91167C18.2605 8.62378 18.8949 7.56876 20.2636 7.24561C20.9171 7.09115 21.9483 6.82265 22.654 6.87255C24.6025 7.01036 26.5747 7.12917 28.3759 7.54025C30.2459 7.96558 30.2507 10.1612 30.1509 11.6534C30.0891 12.6015 31.7785 13.2122 32.5365 12.9056C33.3373 12.5825 34.3923 11.8934 35.1931 12.1168C37.4314 12.7346 39.273 14.108 40.8603 15.6763C42.0222 16.8239 41.8464 18.5395 40.7628 19.7015C39.9526 20.5712 39.8005 21.2888 40.3969 22.3699C40.6227 22.781 40.8793 23.8693 41.4971 23.8455C43.2578 23.7814 45.2039 24.6463 45.3964 26.5948C45.5888 28.5432 45.5746 30.5178 45.4677 32.4877C45.356 34.5621 42.0103 34.8567 41.7252 35.5553L40.7723 37.8887L42.4167 40.2078C43.3529 41.529 42.7968 42.9998 41.7561 43.9622L38.2797 47.1724C37.1416 48.2227 35.5091 48.1846 34.2997 47.1819C33.3777 46.4168 32.7243 46.4762 31.674 46.9277C30.8423 47.2841 30.2079 47.5763 30.2816 48.6718C30.398 50.4206 29.1695 51.7441 27.3898 51.737H27.3874ZM27.1735 44.3828C29.2717 43.1685 31.4578 42.4319 33.8482 41.7975L36.0699 43.1068C36.6687 42.9024 37.7736 42.142 37.9328 41.5219C38.4271 39.5972 35.1385 40.051 36.7804 36.1707L37.7665 33.8373C38.1562 32.9154 38.5316 32.2073 39.5961 31.8318C40.0571 31.6703 41.0385 31.0548 41.1383 30.5796C41.2856 29.8667 41.2381 28.9305 41.1288 28.3056C40.3304 27.7377 39.0995 27.531 38.4176 26.9346C36.7376 25.4613 35.8109 23.2325 35.3095 21.0535C35.0339 19.8559 37.1297 18.3043 36.5214 17.5582C36.2434 17.216 34.8747 16.477 34.3139 16.4747C33.4704 17.5701 31.9401 18.3138 30.752 17.5273C29.994 17.0259 29.2764 16.496 28.4662 16.0541C27.5347 15.5456 26.0639 15.087 25.9545 13.8347L25.755 11.5488L22.8204 11.1425C22.3713 11.0807 21.9555 12.2641 22.041 12.7251C22.3998 14.6117 21.3685 16.0351 19.7575 16.7241C17.8328 17.5463 16.0198 18.3281 14.0214 19.0647C12.4056 19.6587 11.0702 16.5863 9.37126 18.2188C8.82236 18.7463 8.59662 19.7799 9.12651 20.3264L11.2484 22.522C11.4837 23.6578 11.0607 24.9409 10.6282 25.9413C9.68016 28.1321 7.60338 29.2062 5.17018 28.346C4.76386 29.1824 4.11992 30.6366 4.85891 31.5229C5.84264 32.7063 8.79147 31.0525 9.78709 34.189L11.3126 38.9841C11.5146 39.6186 10.6948 40.4787 10.5665 41.1132C10.355 42.1729 12.1157 43.2588 13.0211 43.121C14.1782 41.8997 15.4828 41.3104 17.2316 41.5337C19.5508 41.8284 21.283 43.3206 22.7776 45.2857L22.9891 47.574C23.9918 47.8686 25.5506 47.9209 26.071 46.93C26.4512 46.21 26.3965 44.8295 27.1688 44.3828H27.1735Z" fill="black"/>
<path d="M87.7778 17.0925C86.9937 18.9293 85.1688 19.5922 83.4746 19.0433C81.9752 18.5586 80.7729 16.5246 81.5261 14.7734L87.0697 1.86838C87.7944 0.181303 89.876 -0.348582 91.2019 0.219323C92.744 0.877522 93.9178 2.69054 93.1741 4.43703L87.7778 17.0925Z" fill="black"/>
<path d="M66.1049 16.1778C66.6443 18.1286 65.4182 19.8656 63.8333 20.3028C62.2484 20.74 60.3974 19.9012 59.8057 18.1429C58.6129 14.5929 57.085 11.2971 55.2149 8.05841C54.3072 6.48777 55.0367 4.51079 56.4577 3.68864C57.8786 2.86648 59.9506 3.09222 60.9534 4.69138C63.168 8.22475 64.9501 12.0076 66.1026 16.1754L66.1049 16.1778Z" fill="black"/>
<path d="M76.1679 16.0612C75.7805 17.9123 73.9176 18.7487 72.5395 18.5752C70.686 18.3423 69.593 16.7408 69.6595 14.9112C69.7047 13.6351 69.6477 12.3734 69.5407 11.1212C69.3768 9.22023 70.5007 7.66383 72.2662 7.3882C73.9295 7.12919 75.657 8.13194 76.0657 10.0162C76.4744 11.9005 76.5813 14.0937 76.1679 16.0636V16.0612Z" fill="black"/>
<path d="M52.4014 174.723L38.9 174.937L26.8267 175.065L52.0093 49.7744L103.228 43.0142L127.244 168.785C127.467 170.493 127.935 171.779 128.37 173.487L112.538 173.746L52.4014 174.723ZM104.238 87.2537C106.809 83.6823 107.769 79.284 106.428 75.0568C104.138 67.8333 96.1396 64.0409 89.1489 62.6627C80.1788 60.8948 70.907 61.8905 62.4431 65.3335C56.7355 67.655 50.9495 71.6922 48.3429 77.3641C46.0047 82.4515 47.0597 88.1258 50.8973 92.1557C62.828 104.685 93.7729 101.786 104.238 87.2513V87.2537ZM62.7496 151.182L101.714 150.336C103.86 150.289 105.511 148.435 105.347 146.285L103.04 116.146C102.895 114.242 101.857 112.394 99.7656 112.249C97.0829 112.061 84.7957 112.334 82.0988 112.66L60.3449 115.278C58.1422 115.544 56.9636 117.305 57.0967 119.489L58.8194 147.668C58.9382 149.602 60.661 151.23 62.7472 151.185L62.7496 151.182Z" fill="#FCBFB7"/>
<path d="M36.0771 95.5322L21.6918 167.086L10.626 163.845L29.4571 94.2229C30.5739 94.5865 31.648 95.0379 32.6246 95.1472L36.0771 95.5346V95.5322Z" fill="#FCBFB7"/>
<path d="M139.671 158.855C136.078 160.751 136.311 162.065 133.179 164.581L119.067 90.7418L123.774 89.2258C124.242 90.0005 125.09 90.6515 125.271 91.4951L139.668 158.855H139.671Z" fill="#FCBFB7"/>
<path d="M100.557 210.938L97.0117 180.68L99.2311 180.604L111.259 180.352L109.059 210.173L100.557 210.938Z" fill="#FCBFB7"/>
<path d="M58.8504 212.333L52.2756 212.442L45.9146 181.445L59.3399 181.2L59.1356 196.063L58.8504 212.333Z" fill="#FCBFB7"/>
<path d="M81.3763 39.407C79.1641 40.203 77.4557 39.818 74.3666 40.3099C72.9481 40.5356 71.7243 40.8588 70.2559 40.6616L71.5176 29.5055C72.4419 29.2821 77.7099 27.8255 77.9855 28.6999L81.3787 39.407H81.3763Z" fill="#334E58"/>
<path d="M27.1738 44.3827C26.4015 44.8294 26.4561 46.21 26.076 46.93C25.5556 47.9185 23.9968 47.8686 22.9941 47.5739L22.7826 45.2857C21.288 43.3206 19.5557 41.8283 17.2366 41.5337C15.4854 41.3127 14.1832 41.902 13.026 43.121C12.1207 43.2588 10.3576 42.1729 10.5714 41.1131C10.6974 40.481 11.5195 39.6209 11.3176 38.9841L9.79206 34.1889C8.79407 31.0524 5.84762 32.7038 4.86388 31.5229C4.12489 30.6366 4.77121 29.1824 5.17516 28.3459C7.60836 29.2061 9.68513 28.1321 10.6332 25.9413C11.0657 24.9409 11.4886 23.6578 11.2534 22.5219L9.13148 20.3264C8.6016 19.7775 8.82733 18.7462 9.37623 18.2187C11.0752 16.5886 12.4106 19.6587 14.0264 19.0646C16.0248 18.3304 17.8402 17.5462 19.7625 16.7241C21.3735 16.035 22.4048 14.6117 22.046 12.725C21.9581 12.264 22.3763 11.0807 22.8254 11.1425L25.7599 11.5488L25.9595 13.8347C26.0688 15.0869 27.5421 15.5455 28.4711 16.054C29.2814 16.496 29.9966 17.0235 30.757 17.5272C31.9451 18.3137 33.4754 17.57 34.3189 16.4746C34.8797 16.4793 36.246 17.2183 36.5264 17.5581C37.137 18.3042 35.0389 19.8559 35.3145 21.0535C35.8159 23.23 36.7402 25.4613 38.4225 26.9345C39.1045 27.5309 40.3354 27.7376 41.1338 28.3055C41.2431 28.9305 41.293 29.8667 41.1433 30.5795C41.0435 31.0571 40.0621 31.6702 39.6011 31.8318C38.5366 32.2072 38.1612 32.9153 37.7715 33.8373L36.7854 36.1707C35.1434 40.0533 38.432 39.5971 37.9378 41.5218C37.7786 42.142 36.6737 42.9024 36.0749 43.1067L33.8532 41.7974C31.4627 42.4319 29.2767 43.1685 27.1785 44.3827H27.1738ZM30.0679 30.3966C30.0679 26.7373 27.1025 23.7718 23.4432 23.7718C19.7839 23.7718 16.8184 26.7373 16.8184 30.3966C16.8184 34.0559 19.7839 37.0213 23.4432 37.0213C27.1025 37.0213 30.0679 34.0559 30.0679 30.3966Z" fill="#334E58"/>
<path d="M62.7496 151.182C60.6609 151.227 58.9382 149.6 58.8218 147.665L57.099 119.486C56.966 117.303 58.1445 115.542 60.3473 115.276L82.1011 112.657C84.7981 112.332 97.0876 112.061 99.7679 112.246C101.859 112.391 102.895 114.242 103.042 116.143L105.35 146.282C105.514 148.431 103.86 150.286 101.716 150.334L62.7519 151.18L62.7496 151.182ZM65.4798 145.246L71.6103 138.733L77.4367 132.65C78.2398 131.812 79.5966 132.052 80.2572 132.895L83.0373 136.445L96.3771 120.489C96.8666 119.905 96.9213 119.211 96.5601 118.61C96.3082 118.194 95.132 117.692 94.8279 118.141L84.9169 132.791L83.1062 134.124L77.4509 128.421L70.2179 137.298L64.5151 143.547C64.047 144.061 64.9665 145.223 65.4845 145.249L65.4798 145.246ZM64.2774 132.277C64.3963 134.29 64.218 137.681 64.862 138.078C65.7388 136.935 66.5182 136.217 67.3736 135.169L75.8993 124.712C76.6193 123.83 78.1305 123.177 78.9408 124.277C80.2239 126.021 81.4477 127.708 83.1419 129.103L88.6831 120.888C89.1369 120.216 89.6431 119.672 90.2918 119.128C89.6383 118.334 88.6213 118.766 87.7184 118.804L83.5054 118.987L80.8584 119.147C80.0101 119.199 79.2331 119.363 78.4014 119.51C76.7143 119.807 74.9797 120.012 73.2427 120.156L69.947 120.432C67.9154 120.603 65.6841 120.865 63.807 121.337L63.9448 126.689L64.2751 132.277H64.2774ZM91.9907 144.103L98.6226 143.947C98.6297 142.645 98.6583 141.388 98.5585 140.161L98.2876 136.818C98.1688 135.345 98.2163 134.024 98.3113 132.494C98.3351 132.13 97.848 127.371 97.7886 125.657C97.7815 125.458 97.4821 125.044 97.33 124.947C97.1779 124.849 96.9854 125.237 96.812 125.484L84.3989 140.314C84.0852 140.689 83.3011 141.019 82.9185 140.981C82.5359 140.943 81.7589 140.558 81.5118 140.245L78.62 136.578L74.3477 140.984L70.9426 144.645C73.0384 145.149 75.6047 144.329 77.1302 144.308L91.9883 144.103H91.9907Z" fill="black"/>
<path d="M104.238 87.2536C93.773 101.789 62.8281 104.69 50.8974 92.158C47.0599 88.1257 46.0048 82.4514 48.343 77.3664C50.9496 71.6944 56.7356 67.6573 62.4432 65.3358C70.9071 61.8928 80.1789 60.8971 89.149 62.665C96.142 64.0432 104.138 67.8332 106.428 75.0591C107.769 79.2863 106.809 83.6846 104.238 87.256V87.2536ZM89.3367 90.3949C93.2051 88.7981 97.4822 86.0251 99.5305 82.3397C100.94 79.8019 100.681 76.8579 98.782 74.6362C95.1797 70.4232 88.3007 68.8264 82.8973 68.4937C74.2955 67.9639 63.7121 70.2901 57.1847 76.2805C54.1575 79.0582 52.2494 83.3496 55.1555 86.9518C56.8497 89.05 59.088 90.4448 61.621 91.4072C70.1943 94.6673 80.9369 93.8618 89.3367 90.3973V90.3949Z" fill="black"/>
<path d="M30.0674 30.3967C30.0674 34.056 27.1019 37.0215 23.4426 37.0215C19.7833 37.0215 16.8179 34.056 16.8179 30.3967C16.8179 26.7374 19.7833 23.772 23.4426 23.772C27.1019 23.772 30.0674 26.7374 30.0674 30.3967ZM25.8354 30.3421C25.8354 29.0281 24.7685 27.9612 23.4545 27.9612C22.1405 27.9612 21.0736 29.0281 21.0736 30.3421C21.0736 31.6561 22.1405 32.723 23.4545 32.723C24.7685 32.723 25.8354 31.6561 25.8354 30.3421Z" fill="black"/>
<path d="M91.9906 144.103L77.1324 144.308C75.6045 144.329 73.0406 145.149 70.9448 144.645L74.3499 140.984L78.6222 136.578L81.514 140.245C81.7611 140.558 82.5358 140.943 82.9207 140.981C83.3057 141.019 84.0874 140.689 84.4011 140.313L96.8142 125.484C96.9853 125.237 97.1778 124.849 97.3322 124.947C97.4867 125.044 97.7837 125.458 97.7908 125.657C97.8502 127.37 98.3373 132.13 98.3135 132.494C98.2185 134.024 98.1686 135.345 98.2898 136.818L98.5607 140.161C98.6605 141.39 98.632 142.645 98.6248 143.947L91.9929 144.103H91.9906Z" fill="#334E58"/>
<path d="M64.2772 132.277L63.9469 126.689L63.8091 121.337C65.6863 120.865 67.9175 120.603 69.9491 120.432L73.2449 120.156C74.9795 120.012 76.7141 119.807 78.4035 119.51C79.2352 119.363 80.0098 119.199 80.8605 119.147L83.5075 118.987L87.7205 118.804C88.6234 118.766 89.6404 118.334 90.2939 119.128C89.6452 119.672 89.1391 120.216 88.6852 120.888L83.144 129.103C81.4498 127.708 80.2237 126.021 78.9429 124.277C78.1326 123.177 76.6214 123.828 75.9014 124.712L67.3757 135.169C66.5203 136.217 65.7409 136.937 64.8641 138.078C64.2202 137.683 64.3984 134.29 64.2796 132.277H64.2772Z" fill="#334E58"/>
<path d="M65.4794 145.246C64.9638 145.223 64.0419 144.061 64.51 143.545L70.2128 137.296L77.4458 128.418L83.1011 134.121L84.9118 132.788L94.8228 118.139C95.1269 117.69 96.3031 118.191 96.555 118.607C96.9186 119.208 96.8615 119.902 96.372 120.487L83.0322 136.443L80.2521 132.893C79.5915 132.049 78.2347 131.809 77.4316 132.648L71.6052 138.731L65.4747 145.244L65.4794 145.246Z" fill="#D1E3DD"/>
<path d="M89.3363 90.3948C80.9366 93.8616 70.1939 94.6648 61.6207 91.4047C59.0877 90.4423 56.8493 89.0475 55.1551 86.9494C52.2467 83.3471 54.1548 79.0557 57.1844 76.278C63.7117 70.2876 74.2952 67.9638 82.8969 68.4913C88.3003 68.8239 95.1793 70.4207 98.7816 74.6337C100.68 76.8554 100.939 79.7995 99.5301 82.3372C97.4819 86.025 93.2047 88.798 89.3363 90.3924V90.3948ZM92.884 79.3527C92.7984 77.2878 91.4392 75.501 89.4147 75.0234C87.5281 74.579 85.5701 75.76 85.2683 77.7441C85.0046 79.4692 85.0711 81.4723 85.6414 83.0714C86.2117 84.6706 87.7491 85.6068 89.2983 85.5189C92.4349 85.3431 92.998 82.0307 92.8863 79.3527H92.884ZM65.0044 78.9963C64.0277 77.8225 62.6852 77.0383 61.1431 77.5136C59.8314 77.9175 58.7669 79.1413 58.7004 80.7238C58.6267 82.4964 58.938 84.269 60.05 85.6425C61.0433 86.8662 62.6472 87.2986 64.2012 86.7545C66.24 86.0393 67.6728 82.2065 65.002 78.9987L65.0044 78.9963Z" fill="#D1E3DD"/>
<path d="M23.4547 32.723C24.7696 32.723 25.8356 31.6571 25.8356 30.3421C25.8356 29.0272 24.7696 27.9612 23.4547 27.9612C22.1397 27.9612 21.0737 29.0272 21.0737 30.3421C21.0737 31.6571 22.1397 32.723 23.4547 32.723Z" fill="#D1E3DD"/>
<path d="M92.8844 79.3529C92.9961 82.0308 92.4329 85.3432 89.2964 85.5191C87.7471 85.607 86.2264 84.7111 85.6395 83.0716C85.0526 81.432 85.0027 79.4693 85.2664 77.7442C85.5706 75.7601 87.5261 74.5792 89.4128 75.0235C91.4373 75.5011 92.7965 77.288 92.882 79.3529H92.8844Z" fill="black"/>
<path d="M65.0048 78.9965C67.6732 82.2043 66.2427 86.0371 64.204 86.7523C62.65 87.2964 61.0461 86.8663 60.0528 85.6402C58.9384 84.2668 58.6295 82.4942 58.7032 80.7216C58.7697 79.139 59.8342 77.9153 61.1459 77.5114C62.688 77.0361 64.0305 77.8203 65.0071 78.9941L65.0048 78.9965Z" fill="black"/>
</svg>
