<svg width="156" height="150" viewBox="0 0 156 150" fill="none" xmlns="http://www.w3.org/2000/svg">
<path d="M117.927 69.5851C123.67 69.5851 128.327 74.2668 128.327 80.0415C128.327 85.8162 123.67 90.4979 117.927 90.4979C112.183 90.4979 107.527 85.8162 107.527 80.0415C107.527 74.2668 112.183 69.5851 117.927 69.5851ZM105.113 95.6017C110.856 95.6017 115.512 100.283 115.512 106.058C115.512 111.833 110.856 116.515 105.113 116.515C99.3692 116.515 94.7128 111.833 94.7128 106.058C94.7128 100.283 99.3692 95.6017 105.113 95.6017ZM88.5224 118.444H76.8226H65.1228C58.0038 118.444 53.5468 124.357 53.5468 131.763V150H61.5324V133.88C61.5324 133.133 62.1514 132.635 62.7704 132.635C63.5133 132.635 64.0085 133.133 64.0085 133.88V149.938H89.6986V133.88C89.6986 133.133 90.3176 132.635 90.9366 132.635C91.6795 132.635 92.1747 133.257 92.1747 133.88V149.938H100.16V131.826C100.284 124.357 95.7651 118.444 88.5224 118.444ZM91.4319 69.5851C97.1753 69.5851 101.832 74.2668 101.832 80.0415C101.832 85.8162 97.1753 90.4979 91.4319 90.4979C85.6884 90.4979 81.032 85.8162 81.032 80.0415C81.032 74.2668 85.6884 69.5851 91.4319 69.5851ZM122.012 106.058C122.012 111.846 126.655 116.515 132.412 116.515C138.169 116.515 142.812 111.846 142.812 106.058C142.812 100.27 138.169 95.6017 132.412 95.6017C126.655 95.6017 122.012 100.27 122.012 106.058ZM120.96 118.444C113.841 118.444 109.384 124.357 109.384 131.763V150H117.37V133.88C117.37 133.133 117.989 132.635 118.608 132.635C119.35 132.635 119.846 133.133 119.846 133.88V149.938H145.536V133.88C145.536 133.133 146.155 132.635 146.774 132.635C147.517 132.635 148.012 133.257 148.012 133.88V149.938H155.998V131.826C156.121 124.295 151.602 118.382 144.422 118.382H132.722H120.96V118.444ZM23.3996 95.6017C29.1431 95.6017 33.7995 100.283 33.7995 106.058C33.7995 111.833 29.1431 116.515 23.3996 116.515C17.6562 116.515 12.9998 111.833 12.9998 106.058C12.9998 100.283 17.6562 95.6017 23.3996 95.6017ZM7.92368 149.938V133.88C7.92368 133.133 8.54272 132.635 9.16176 132.635C9.9046 132.635 10.3998 133.133 10.3998 133.88V149.938H36.0899V133.88C36.0899 133.133 36.7089 132.635 37.328 132.635C38.0708 132.635 38.566 133.257 38.566 133.88V149.938H46.5516V131.826C46.6754 124.295 42.1565 118.382 34.9756 118.382H23.2758H11.576C4.45707 118.382 0 124.295 0 131.701V149.938H7.92368ZM66.4227 106.058C66.4227 111.846 71.0655 116.515 76.8226 116.515C82.5796 116.515 87.2224 111.846 87.2224 106.058C87.2224 100.27 82.5796 95.6017 76.8226 95.6017C71.0655 95.6017 66.4227 100.27 66.4227 106.058ZM36.7089 69.5851C42.4524 69.5851 47.1088 74.2668 47.1088 80.0415C47.1088 85.8162 42.4524 90.4979 36.7089 90.4979C30.9655 90.4979 26.3091 85.8162 26.3091 80.0415C26.3091 74.2668 30.9655 69.5851 36.7089 69.5851ZM64.8132 69.5851C70.5567 69.5851 75.2131 74.2668 75.2131 80.0415C75.2131 85.8162 70.5567 90.4979 64.8132 90.4979C59.0698 90.4979 54.4134 85.8162 54.4134 80.0415C54.4134 74.2668 59.0698 69.5851 64.8132 69.5851ZM50.823 95.6017C56.5664 95.6017 61.2228 100.283 61.2228 106.058C61.2228 111.833 56.5664 116.515 50.823 116.515C45.0796 116.515 40.4232 111.833 40.4232 106.058C40.4232 100.283 45.0796 95.6017 50.823 95.6017ZM47.947 43.1459L44.6803 43.1676V4.39917H39.4067V46.6805H72.2423C69.235 45.3373 62.2473 43.1459 48.7257 43.1459H47.947ZM51.0731 0H51.0675C49.1423 0 47.9253 0.0491701 47.9253 0.0491701C47.9253 0.0491701 47.9253 33.6293 47.9253 39.8832H48.7368C70.1172 39.8832 76.1856 45.1855 76.1856 45.1855C76.1856 45.1855 76.1856 12.1494 76.1856 5.62344C72.7345 0.570747 57.6931 0 51.0731 0ZM107.274 43.1459C93.7526 43.1459 86.7649 45.3373 83.7577 46.6805H116.593V4.39917H111.32V43.167L108.053 43.1452L107.274 43.1459ZM79.8144 5.62282C79.8144 12.1488 79.8144 45.1849 79.8144 45.1849C79.8144 45.1849 85.8828 39.8826 107.263 39.8826H108.075C108.075 33.6286 108.075 0.0485478 108.075 0.0485478C108.075 0.0485478 106.858 0 104.932 0H104.927C98.3069 0 83.2655 0.570747 79.8144 5.62282Z" fill="#334E58"/>
</svg>
