<svg width="136" height="150" viewBox="0 0 136 150" fill="none" xmlns="http://www.w3.org/2000/svg">
<g opacity="0.9">
<path d="M130.534 150H4.57245C3.35976 150 2.19681 149.518 1.33931 148.66C0.481805 147.803 0 146.64 0 145.427C0 144.215 0.481805 143.052 1.33931 142.194C2.19681 141.337 3.35976 140.855 4.57245 140.855H130.534C131.747 140.855 132.91 141.337 133.767 142.194C134.625 143.052 135.107 144.215 135.107 145.427C135.107 146.64 134.625 147.803 133.767 148.66C132.91 149.518 131.747 150 130.534 150Z" fill="#334E58"/>
<path d="M34.8509 150C34.2504 150.006 33.6545 149.893 33.0974 149.669C32.5404 149.445 32.0329 149.113 31.6041 148.693C31.1752 148.272 30.8336 147.772 30.5982 147.219C30.3629 146.667 30.2387 146.074 30.2327 145.473C30.2266 144.873 30.3388 144.277 30.5631 143.72C30.7873 143.163 31.1192 142.655 31.5396 142.226C31.9599 141.798 32.4607 141.456 33.0131 141.22C33.5656 140.985 34.1589 140.861 34.7593 140.855C35.6738 140.855 125.98 138.262 125.98 82.1169C125.98 26.0905 70.4474 24.3529 68.0835 24.3072C66.8708 24.2963 65.7118 23.8041 64.862 22.9388C64.0123 22.0736 63.5411 20.9064 63.552 19.6937C63.563 18.481 64.0551 17.3222 64.9204 16.4724C65.7856 15.6226 66.9528 15.1513 68.1655 15.1622H68.2434C68.9109 15.1622 135.125 17.0324 135.125 82.1169C135.125 147.201 35.9437 149.977 34.9469 150H34.8509Z" fill="#334E58"/>
<path d="M50.1335 9.14493C52.3277 9.14735 54.4315 10.02 55.983 11.5715C57.5346 13.1231 58.4072 15.2269 58.4096 17.4211V72.0575C58.4096 74.2531 57.5375 76.3587 55.985 77.9112C54.4325 79.4638 52.3268 80.3359 50.1313 80.3359C47.9357 80.3359 45.8301 79.4638 44.2776 77.9112C42.7251 76.3587 41.8529 74.2531 41.8529 72.0575V17.4211C41.8553 15.2261 42.7286 13.1217 44.2812 11.57C45.8337 10.0183 47.9385 9.14614 50.1335 9.14493ZM50.1335 0C45.5164 0.0120644 41.0918 1.85121 37.8266 5.11556C34.5614 8.37991 32.7213 12.804 32.708 17.4211V72.0575C32.708 76.6785 34.5435 81.1102 37.811 84.3777C41.0785 87.6452 45.5103 89.4808 50.1313 89.4808C54.7522 89.4808 59.1838 87.6452 62.4513 84.3777C65.7188 81.1102 67.5545 76.6785 67.5545 72.0575V17.4211C67.5413 12.8048 65.7015 8.38131 62.4373 5.11709C59.1731 1.85288 54.7498 0.0132705 50.1335 0Z" fill="#334E58"/>
<path d="M82.6835 110.741H20.1096C18.8969 110.741 17.7336 110.259 16.8761 109.401C16.0186 108.544 15.5371 107.381 15.5371 106.168C15.5371 104.955 16.0186 103.792 16.8761 102.935C17.7336 102.077 18.8969 101.596 20.1096 101.596H82.6835C83.8962 101.596 85.0592 102.077 85.9167 102.935C86.7742 103.792 87.256 104.955 87.256 106.168C87.256 107.381 86.7742 108.544 85.9167 109.401C85.0592 110.259 83.8962 110.741 82.6835 110.741Z" fill="#334E58"/>
</g>
</svg>
