<svg width="126" height="126" viewBox="0 0 126 126" fill="none" xmlns="http://www.w3.org/2000/svg">
<path d="M44.2295 36.75C40.0987 36.75 36.75 40.0987 36.75 44.2295V108.021C36.75 112.151 40.0987 115.5 44.2295 115.5H108.021C112.151 115.5 115.5 112.151 115.5 108.021V44.2295C115.5 40.0987 112.151 36.75 108.021 36.75H44.2295ZM110.25 102.771C110.25 106.901 106.901 110.25 102.771 110.25H49.4795C45.3487 110.25 42 106.901 42 102.771V49.4795C42 45.3487 45.3487 42 49.4795 42H102.771C106.901 42 110.25 45.3487 110.25 49.4795V102.771ZM38.9794 31.5C34.8487 31.5 31.5 34.8487 31.5 38.9795V81.7705C31.5 85.9013 28.1513 89.25 24.0205 89.25H17.9795C13.8487 89.25 10.5 85.9013 10.5 81.7705V17.9795C10.5 13.8487 13.8487 10.5 17.9795 10.5H81.7705C85.9013 10.5 89.25 13.8487 89.25 17.9795V24.0205C89.25 28.1513 85.9013 31.5 81.7705 31.5H38.9794Z" fill="#FCBFB7"/>
<path opacity="0.5" d="M42 48.9041C42 45.0911 45.0911 42 48.9041 42H82.3459C86.1589 42 89.25 45.0911 89.25 48.9041V82.3459C89.25 86.1589 86.1589 89.25 82.3459 89.25H48.9041C45.0911 89.25 42 86.1589 42 82.3459V48.9041Z" fill="#FCBFB7"/>
</svg>
